<?xml version="1.0" encoding="UTF-8" standalone="no"?>
<!-- Created with Inkscape (http://www.inkscape.org/) -->

<svg
   version="1.1"
   id="svg1"
   width="182"
   height="44"
   viewBox="0 0 182 44"
   sodipodi:docname="signature.pdf"
   xmlns:inkscape="http://www.inkscape.org/namespaces/inkscape"
   xmlns:sodipodi="http://sodipodi.sourceforge.net/DTD/sodipodi-0.dtd"
   xmlns="http://www.w3.org/2000/svg"
   xmlns:svg="http://www.w3.org/2000/svg">
  <defs
     id="defs1" />
  <sodipodi:namedview
     id="namedview1"
     pagecolor="#ffffff"
     bordercolor="#000000"
     borderopacity="0.25"
     inkscape:showpageshadow="2"
     inkscape:pageopacity="0.0"
     inkscape:pagecheckerboard="0"
     inkscape:deskcolor="#d1d1d1">
    <inkscape:page
       x="0"
       y="0"
       inkscape:label="1"
       id="page1"
       width="182"
       height="44"
       margin="0"
       bleed="0" />
  </sodipodi:namedview>
  <g
     id="g1"
     inkscape:groupmode="layer"
     inkscape:label="1">
    <path
       id="path1"
       d="M 18.582,31.871 C 8.469,30.801 0.719,27.016 0.867,20.148 1.219,8.695 12.578,2.703 21.102,2.434 25.18,2.32 28.453,4.227 28.742,6.777 29.395,12.527 14.328,18.5 14.328,18.5 c 0,0 13.395,-4.93 18.492,1.648 2.09,2.696 -8.855,7.989 -8.855,7.989 0,0 -6.59,2.519 -5.731,-0.172 1.325,-4.149 12.594,-7.578 13.805,-7.731 2.379,-0.296 5.324,-0.304 5.992,0.09 1.004,0.586 -1.258,3.102 -0.695,3.645 0.566,0.543 2.867,-1.91 2.953,-1.477 0.086,0.434 -0.477,1.977 0.434,2.258 0.914,0.281 1.738,-0.824 3.215,-1.129 1.476,-0.305 1.367,-0.324 2.691,-0.086 1.324,0.238 1.586,0.477 2.605,1.043 1.02,0.563 0.649,1.672 1.477,1.215 0.824,-0.457 1.062,-3.125 1.82,-3.039 0.762,0.086 0.024,4.039 1.219,3.387 1.191,-0.653 3.559,-5.993 3.559,-5.993 0,0 -0.621,3.036 0,2.954 2.347,-0.309 6.078,-1.934 10.855,-2.52 4.774,-0.586 6.496,-0.266 8.246,0.176 1.442,0.363 2,1.734 2,1.734"
       style="fill:none;stroke:#000000;stroke-width:1.05;stroke-linecap:round;stroke-linejoin:round;stroke-miterlimit:4;stroke-dasharray:none;stroke-opacity:1"
       transform="scale(1.3333333)" />
    <path
       id="path2"
       d="m 85.266,11.812 c 0,0 -0.825,-2.082 -2.692,-1.562 -4.371,1.219 -12.16,5.762 -12.328,11.723 -0.344,12.218 15.813,8.355 17.02,8.25 10.199,-0.899 13.035,-7.469 13.023,-10.856 -0.043,-10.73 -14.305,-7.726 -15.805,-7.555 -5.922,0.688 -7.859,1.18 -7.859,1.18"
       style="fill:none;stroke:#000000;stroke-width:1.05;stroke-linecap:butt;stroke-linejoin:miter;stroke-miterlimit:4;stroke-dasharray:none;stroke-opacity:1"
       transform="scale(1.3333333)" />
    <path
       id="path3"
       d="M 89.781,0.785 C 87.879,11.223 85.941,21.66 87.879,31.871"
       style="fill:none;stroke:#000000;stroke-width:1.05;stroke-linecap:round;stroke-linejoin:miter;stroke-miterlimit:4;stroke-dasharray:none;stroke-opacity:1"
       transform="scale(1.3333333)" />
    <path
       id="path4"
       d="m 100.207,20.844 c -4.965,-0.309 -9.445,0.281 -13.023,2.519"
       style="fill:none;stroke:#000000;stroke-width:1.05;stroke-linecap:butt;stroke-linejoin:miter;stroke-miterlimit:4;stroke-dasharray:none;stroke-opacity:1"
       transform="scale(1.3333333)" />
    <path
       id="path5"
       d="m 98.641,24.578 c 0,0 2.957,-0.101 6.25,-0.695 1.804,-0.324 3.757,-1.301 5.906,-1.391 2.148,-0.086 1.301,1.086 2.691,1.043 3.473,-0.109 5.992,-0.215 11.203,-0.519 5.207,-0.305 7.313,-2.075 9.637,-0.696 1.281,0.758 1.043,2.344 1.043,2.344"
       style="fill:none;stroke:#000000;stroke-width:1.05;stroke-linecap:round;stroke-linejoin:miter;stroke-miterlimit:4;stroke-dasharray:none;stroke-opacity:1"
       transform="scale(1.3333333)" />
    <path
       id="path6"
       d="m 113.773,20.688 c -1.738,0.097 -1.933,1.894 -1.933,1.894 l 3.301,0.691 c 0,0 1.703,-2.058 -0.528,-2.515 -0.312,-0.067 -0.59,-0.086 -0.84,-0.07 z"
       style="fill:none;stroke:#000000;stroke-width:1.05;stroke-linecap:butt;stroke-linejoin:miter;stroke-miterlimit:4;stroke-dasharray:none;stroke-opacity:1"
       transform="scale(1.3333333)" />
  </g>
</svg>
